HIERARCHY
ROOT Hips
{
  OFFSET 49.1607 49.7794 -6.72879
  CHANNELS 6 Xposition Yposition Zposition Zrotation Xrotation Yrotation
  JOINT spine
  {
    OFFSET 0 6.24479 0.359107
    CHANNELS 3 Zrotation Xrotation Yrotation
    JOINT spine1
    {
      OFFSET 0 9.06941 0
      CHANNELS 3 Zrotation Xrotation Yrotation
      JOINT spine2
      {
        OFFSET 0 8.69014 0
        CHANNELS 3 Zrotation Xrotation Yrotation
        JOINT Neck
        {
          OFFSET 0 22.3112 1.06372
          CHANNELS 3 Zrotation Xrotation Yrotation
          JOINT Head
          {
            OFFSET 0 6.74081 0
            CHANNELS 3 Zrotation Xrotation Yrotation
            End Site
            {
              OFFSET 0 16.3165 -5.38097
            }
          }
        }
        JOINT RightShoulder
        {
          OFFSET -3.65916 9.38468 -0.509514
          CHANNELS 3 Zrotation Xrotation Yrotation
          JOINT RightArm
          {
            OFFSET 0 12.3089 0
            CHANNELS 3 Zrotation Xrotation Yrotation
            JOINT RightArmRoll
            {
              OFFSET 0 6.21375 0
              CHANNELS 3 Zrotation Xrotation Yrotation
              JOINT RightForeArm
              {
                OFFSET 0 18.0985 0
                CHANNELS 3 Zrotation Xrotation Yrotation
                JOINT RightForeArmRoll
                {
                  OFFSET 0 6.97279 0
                  CHANNELS 3 Zrotation Xrotation Yrotation
                  JOINT RightHand
                  {
                    OFFSET 0 13.9929 0
                    CHANNELS 3 Zrotation Xrotation Yrotation
                    End Site
                    {
                      OFFSET 0 0 0
                    }
                  }
                }
              }
            }
          }
        }
        JOINT LeftShoulder
        {
          OFFSET 3.65916 9.38468 -0.509514
          CHANNELS 3 Zrotation Xrotation Yrotation
          JOINT LeftArm
          {
            OFFSET 0 12.3089 0
            CHANNELS 3 Zrotation Xrotation Yrotation
            JOINT LeftArmRoll
            {
              OFFSET 0 6.21375 0
              CHANNELS 3 Zrotation Xrotation Yrotation
              JOINT LeftForeArm
              {
                OFFSET 0 18.0985 0
                CHANNELS 3 Zrotation Xrotation Yrotation
                JOINT LeftForeArmRoll
                {
                  OFFSET 0 6.9728 0
                  CHANNELS 3 Zrotation Xrotation Yrotation
                  JOINT LeftHand
                  {
                    OFFSET 0 13.9929 0
                    CHANNELS 3 Zrotation Xrotation Yrotation
                    End Site
                    {
                      OFFSET 0 0 0
                    }
                  }
                }
              }
            }
          }
        }
      }
    }
  }
  JOINT RightUpLeg
  {
    OFFSET -5.53515 -1.015 -0.851454
    CHANNELS 3 Zrotation Xrotation Yrotation
    JOINT RightUpLegRoll
    {
      OFFSET 0 16.4075 0
      CHANNELS 3 Zrotation Xrotation Yrotation
      JOINT RightLeg
      {
        OFFSET 0 -20.3181 0
        CHANNELS 3 Zrotation Xrotation Yrotation
        JOINT RightLegRoll
        {
          OFFSET 0 20.3846 0
          CHANNELS 3 Zrotation Xrotation Yrotation
          JOINT RightFoot
          {
            OFFSET 0 16.9668 0
            CHANNELS 3 Zrotation Xrotation Yrotation
            JOINT RightToeBase
            {
              OFFSET 0 14.1834 0
              CHANNELS 3 Zrotation Xrotation Yrotation
              End Site
              {
                OFFSET 0.0060118 6.86889 -0.791746
              }
            }
          }
        }
      }
    }
  }
  JOINT LeftUpLeg
  {
    OFFSET 5.53515 -1.015 -0.851454
    CHANNELS 3 Zrotation Xrotation Yrotation
    JOINT LeftUpLegRoll
    {
      OFFSET 0 16.4076 0
      CHANNELS 3 Zrotation Xrotation Yrotation
      JOINT LeftLeg
      {
        OFFSET 0 20.3181 0
        CHANNELS 3 Zrotation Xrotation Yrotation
        JOINT LeftLegRoll
        {
          OFFSET 0 20.5731 0
          CHANNELS 3 Zrotation Xrotation Yrotation
          JOINT LeftFoot
          {
            OFFSET 0 16.7783 0
            CHANNELS 3 Zrotation Xrotation Yrotation
            JOINT LeftToeBase
            {
              OFFSET 0 14.1834 0
              CHANNELS 3 Zrotation Xrotation Yrotation
              End Site
              {
                OFFSET -0.0269423 6.86889 -0.791746
              }
            }
          }
        }
      }
    }
  }
}
MOTION
Frames: 10
Frame Time: 0.00208333
52.8604 84.3227 41.6213 -1.08065 2.67738 -6.27449 0.027788 -1.48037 -0.0440718 0.0554042 1.04206 -0.0909403 0.0557972 2.68713 -0.0920197 6.64859 11.3846 -2.34323 -1.51026 7.12705 -0.317486 69.9452 -3.3451 -2.91498 103.739 11.8013 12.5516 -6.16232e-015 5.56597e-015 6.36111e-015 8.33063 8.57529 -1.26045 -1.47723e-006 -4.5614e-006 -3 8.02913 -4.95145 0.697685 -59.1043 -11.0191 6.86501 -115.106 4.44882 -18.8656 -1.6671e-007 -3.71425e-007 8.97845e-006 0.365069 15.0287 0.423706 7.71772e-006 -2.41235e-006 3.00002 -8.03024 -4.95137 -0.697652 179.098 9.37542 -1.37714 180 7.01583e-015 179.093 179.405 9.2753 179.214 1.13125e-006 -3.04726e-006 0.0370117 -17.3378 67.2587 18.9652 8.12658 25.2332 -3.48351 -178.947 4.15364 -0.962656 4.54188e-006 -4.6773e-006 -1.08149 -1.76912 -10.6225 0.58298 -6.39798e-007 2.19306e-006 -0.277099 23.0088 71.3201 -22.9091 -8.19364 26.142 3.51092 
52.8692 84.3241 41.6234 -1.08285 2.68443 -6.28415 0.0278944 -1.47662 -0.040748 0.0556998 1.04957 -0.0843146 0.0560666 2.69464 -0.0853879 6.68186 11.3642 -2.35796 -1.54165 7.15607 -0.323436 69.9486 -3.3721 -2.92868 103.763 11.7489 12.5496 4.17448e-015 3.18055e-015 6.36111e-015 8.33472 8.6119 -1.26327 -1.47723e-006 -4.5614e-006 -3 8.02913 -4.95145 0.697685 -59.074 -11.0242 6.86855 -115.172 4.40167 -18.8782 -1.6671e-007 -3.71425e-007 8.97845e-006 0.380919 15.0409 0.421177 7.71772e-006 -2.41235e-006 3.00002 -8.03024 -4.95137 -0.697652 179.096 9.38832 -1.37689 180 7.01583e-015 179.093 179.401 9.2709 179.214 1.13125e-006 -3.04726e-006 0.037152 -17.3333 67.2624 18.9669 8.12658 25.2332 -3.48351 -178.944 4.15085 -0.970167 4.54188e-006 -4.6773e-006 -1.08149 -1.78099 -10.5965 0.580528 -6.39798e-007 2.19306e-006 -0.276565 23.0111 71.3112 -22.8995 -8.19313 26.1349 3.51076 
52.8609 84.3269 41.6232 -1.08535 2.69092 -6.29361 0.027966 -1.47263 -0.0372623 0.0559306 1.05753 -0.0773622 0.0562691 2.7026 -0.0784279 6.71724 11.341 -2.37364 -1.5742 7.18745 -0.329827 69.9527 -3.40092 -2.94334 103.787 11.6969 12.548 -5.56597e-015 5.56597e-015 6.36111e-015 8.33865 8.64827 -1.26604 -1.47723e-006 -4.5614e-006 -3 8.02913 -4.95145 0.697685 -59.0414 -11.0296 6.8723 -115.24 4.35472 -18.8911 -1.6671e-007 -3.71425e-007 8.97845e-006 0.398143 15.0526 0.418427 7.71772e-006 -2.41235e-006 3.00002 -8.03024 -4.95137 -0.697652 179.094 9.40018 -1.37683 180 7.01583e-015 179.093 179.397 9.26631 179.215 1.13125e-006 -3.04726e-006 0.037321 -17.3294 67.2664 18.9688 8.12658 25.2332 -3.48351 -178.94 4.14705 -0.9784 4.54188e-006 -4.6773e-006 -1.08149 -1.79327 -10.5701 0.578012 -6.39798e-007 2.19306e-006 -0.276016 23.0133 71.302 -22.8896 -8.19264 26.1279 3.5106 
52.8716 84.3249 41.6067 -1.08807 2.69701 -6.30293 0.028013 -1.46849 -0.0336634 0.0561153 1.06582 -0.0701812 0.0564239 2.71089 -0.0712381 6.75409 11.316 -2.38999 -1.60756 7.22049 -0.336528 69.9573 -3.43101 -2.95867 103.811 11.6452 12.5465 7.15625e-015 -3.97569e-016 6.36111e-015 8.34246 8.68448 -1.26876 -1.47723e-006 -4.5614e-006 -3 8.02913 -4.95145 0.697685 -59.0073 -11.0352 6.8762 -115.31 4.30791 -18.9043 -1.6671e-007 -3.71425e-007 8.97845e-006 0.416331 15.0641 0.415522 7.71772e-006 -2.41235e-006 3.00002 -8.03024 -4.95137 -0.697652 179.092 9.41132 -1.37691 180 7.01583e-015 179.093 179.394 9.26154 179.215 1.13125e-006 -3.04726e-006 0.0375101 -17.3261 67.2707 18.9709 8.12658 25.2332 -3.48351 -178.935 4.14254 -0.987139 4.54188e-006 -4.6773e-006 -1.08149 -1.80585 -10.5435 0.57545 -6.39798e-007 2.19306e-006 -0.275457 23.0155 71.2927 -22.8796 -8.19216 26.1212 3.51045 
52.8883 84.3231 41.596 -1.09092 2.70288 -6.31217 0.0280458 -1.46426 -0.0299998 0.0562725 1.07428 -0.0628694 0.0565506 2.71935 -0.0639169 6.79179 11.2899 -2.40673 -1.64137 7.25447 -0.343406 69.9621 -3.46182 -2.9744 103.834 11.5936 12.5452 -7.55382e-015 7.95139e-015 3.18055e-015 8.34621 8.72059 -1.27147 -1.47723e-006 -4.5614e-006 -3 8.02913 -4.95145 0.697685 -58.9722 -11.0408 6.88018 -115.381 4.26119 -18.9176 -1.6671e-007 -3.71425e-007 8.97845e-006 0.435069 15.0754 0.412528 7.71772e-006 -2.41235e-006 3.00002 -8.03024 -4.95137 -0.697652 179.091 9.42203 -1.37707 180 7.01583e-015 179.093 179.391 9.25669 179.216 1.13125e-006 -3.04726e-006 0.0377107 -17.3231 67.2752 18.9731 8.12658 25.2332 -3.48351 -178.931 4.13762 -0.996165 4.54188e-006 -4.6773e-006 -1.08149 -1.81858 -10.5167 0.572864 -6.39798e-007 2.19306e-006 -0.274892 23.0176 71.2833 -22.8695 -8.1917 26.1146 3.51031 
52.8884 84.3267 41.5846 -1.09379 2.70869 -6.3214 0.0280745 -1.46001 -0.02632 0.0564212 1.0828 -0.0555249 0.0566686 2.72786 -0.0565628 6.82968 11.2635 -2.42355 -1.6753 7.28869 -0.350329 69.967 -3.49281 -2.99021 103.858 11.542 12.5439 5.76476e-015 -2.38542e-015 6.36111e-015 8.34995 8.75667 -1.27418 -1.47723e-006 -4.5614e-006 -3 8.02913 -4.95145 0.697685 -58.9369 -11.0466 6.88419 -115.452 4.21449 -18.931 -1.6671e-007 -3.71425e-007 8.97845e-006 0.453945 15.0867 0.409512 7.71772e-006 -2.41235e-006 3.00002 -8.03024 -4.95137 -0.697652 179.089 9.43264 -1.37724 180 7.01583e-015 179.093 179.388 9.2518 179.216 1.13125e-006 -3.04726e-006 0.0379141 -17.3202 67.2798 18.9754 8.12658 25.2332 -3.48351 -178.926 4.1326 -1.00526 4.54188e-006 -4.6773e-006 -1.08149 -1.83136 -10.4898 0.570272 -6.39798e-007 2.19306e-006 -0.274325 23.0198 71.2739 -22.8594 -8.19123 26.1079 3.51016 
52.8864 84.3262 41.5699 -1.0966 2.71461 -6.33066 0.0281096 -1.4558 -0.0226726 0.0565805 1.09122 -0.0482457 0.0567975 2.73628 -0.0492743 6.86712 11.2377 -2.44018 -1.70898 7.32244 -0.357165 69.9718 -3.52344 -3.00584 103.881 11.4904 12.5425 -1.11319e-014 5.56597e-015 1.27222e-014 8.35372 8.79281 -1.2769 -1.47723e-006 -4.5614e-006 -3 8.02913 -4.95145 0.697685 -58.9021 -11.0522 6.88816 -115.522 4.16776 -18.9443 -1.6671e-007 -3.71425e-007 8.97845e-006 0.472548 15.098 0.40654 7.71772e-006 -2.41235e-006 3.00002 -8.03024 -4.95137 -0.697652 179.088 9.44346 -1.37738 180 7.01583e-015 179.093 179.384 9.24698 179.216 1.13125e-006 -3.04726e-006 0.0381118 -17.3171 67.2842 18.9775 8.12658 25.2332 -3.48351 -178.921 4.12778 -1.01422 4.54188e-006 -4.6773e-006 -1.08149 -1.84405 -10.4631 0.567693 -6.39798e-007 2.19306e-006 -0.273762 23.022 71.2645 -22.8493 -8.19076 26.1013 3.51002 
52.8939 84.3286 41.5593 -1.09925 2.72081 -6.34002 0.0281615 -1.4517 -0.0191061 0.0567694 1.09941 -0.0411298 0.0569571 2.74448 -0.0421497 6.9035 11.2132 -2.45634 -1.74208 7.355 -0.363782 69.9762 -3.55316 -3.02099 103.905 11.4386 12.5411 2.3059e-014 -7.55382e-015 6.36111e-015 8.35758 8.82906 -1.27964 -1.47723e-006 -4.5614e-006 -3 8.02913 -4.95145 0.697685 -58.8684 -11.0577 6.89201 -115.592 4.12094 -18.9575 -1.6671e-007 -3.71425e-007 8.97845e-006 0.490465 15.1096 0.403678 7.71772e-006 -2.41235e-006 3.00002 -8.03024 -4.95137 -0.697652 179.086 9.4548 -1.37742 180 7.01583e-015 179.093 179.381 9.24225 179.217 1.13125e-006 -3.04726e-006 0.0382952 -17.3137 67.2885 18.9796 8.12658 25.2332 -3.48351 -178.917 4.12347 -1.02281 4.54188e-006 -4.6773e-006 -1.08149 -1.85653 -10.4365 0.565147 -6.39798e-007 2.19306e-006 -0.273206 23.0242 71.2552 -22.8394 -8.19028 26.0945 3.50987 
52.907 84.3265 41.5373 -1.10165 2.72747 -6.34954 0.0282404 -1.44779 -0.0156691 0.0570072 1.10724 -0.0342752 0.0571672 2.7523 -0.0352876 6.93816 11.1908 -2.47172 -1.77423 7.38568 -0.370047 69.9799 -3.58143 -3.03538 103.929 11.3865 12.5394 -3.97569e-016 3.18055e-015 9.54166e-015 8.36158 8.86551 -1.28243 -1.47723e-006 -4.5614e-006 -3 8.02913 -4.95145 0.697685 -58.8365 -11.063 6.8957 -115.659 4.07398 -18.9704 -1.6671e-007 -3.71425e-007 8.97845e-006 0.507285 15.1214 0.400992 7.71772e-006 -2.41235e-006 3.00002 -8.03024 -4.95137 -0.697652 179.084 9.46698 -1.3773 180 7.01583e-015 179.093 179.377 9.23772 179.217 1.13125e-006 -3.04726e-006 0.0384556 -17.3096 67.2924 18.9814 8.12658 25.2332 -3.48351 -178.913 4.11998 -1.03083 4.54188e-006 -4.6773e-006 -1.08149 -1.86867 -10.4102 0.562653 -6.39798e-007 2.19306e-006 -0.272661 23.0265 71.2461 -22.8296 -8.18978 26.0875 3.50971 
52.9113 84.3287 41.5278 -1.10371 2.73474 -6.35928 0.0283569 -1.44413 -0.01241 0.0573134 1.11456 -0.0277799 0.057448 2.75963 -0.0287864 6.97048 11.1715 -2.48605 -1.80511 7.41375 -0.375828 69.9829 -3.6077 -3.0487 103.954 11.334 12.5373 9.14409e-015 -7.95139e-016 9.54166e-015 8.36576 8.90222 -1.28528 -1.47723e-006 -4.5614e-006 -3 8.02913 -4.95145 0.697685 -58.8071 -11.068 6.89916 -115.724 4.02681 -18.9829 -1.6671e-007 -3.71425e-007 8.97845e-006 0.522595 15.1338 0.398549 7.71772e-006 -2.41235e-006 3.00002 -8.03024 -4.95137 -0.697652 179.082 9.4803 -1.37698 180 7.01583e-015 179.093 179.374 9.23344 179.218 1.13125e-006 -3.04726e-006 0.0385845 -17.3048 67.2958 18.983 8.12658 25.2332 -3.48351 -178.91 4.1176 -1.03805 4.54188e-006 -4.6773e-006 -1.08149 -1.88035 -10.3844 0.560231 -6.39798e-007 2.19306e-006 -0.272132 23.0289 71.2372 -22.8201 -8.18927 26.0802 3.50954 
